<svg id="Layer_1" data-name="Layer 1" xmlns="http://www.w3.org/2000/svg" xmlns:xlink="http://www.w3.org/1999/xlink" viewBox="0 0 2604 1950.63"><defs><style>.cls-1{fill:none;}.cls-2{fill:#ebf2f9;}.cls-3{fill:#d5e7f7;}.cls-4{fill:#c4d9ed;}.cls-5{fill:#1c2948;}.cls-6{fill:#2d3a62;}.cls-7{fill:#98bdf4;}.cls-8{fill:#a8d29f;}.cls-9{fill:#82b378;}.cls-10{fill:#b64c41;}.cls-11{fill:#f1a34f;}.cls-12{fill:#163560;}.cls-13{clip-path:url(#clip-path);}.cls-14{clip-path:url(#clip-path-2);}.cls-15{clip-path:url(#clip-path-3);}.cls-16{clip-path:url(#clip-path-4);}.cls-17{clip-path:url(#clip-path-5);}.cls-18{fill:#d9935c;}.cls-19{fill:#fff;}.cls-20{fill:#466aa5;}.cls-21{fill:#2b478b;}.cls-22{fill:#233862;}.cls-23{fill:#cb7d45;}.cls-24{fill:#aa413e;}.cls-25,.cls-26{fill:#d86713;}.cls-26{opacity:0.4;}.cls-27{fill:#cb8757;}.cls-28{fill:#e7f0fd;}.cls-29{fill:#da935b;}.cls-30{fill:#739af0;}.cls-31{fill:#4a75cb;}.cls-32{fill:#ffa412;}.cls-33{fill:#ed6058;}.cls-34{fill:#ab7041;}.cls-35{fill:#9c5f33;}.cls-36{fill:#74acbe;}.cls-37{fill:#9ed9f0;}.cls-38{fill:#d6716b;}.cls-39{fill:#a05f32;}.cls-40{fill:#af7041;}.cls-41{fill:#283250;}.cls-42{font-size:330px;fill:#a02a2a;font-family:MyriadPro-Bold, Myriad Pro;font-weight:700;}.cls-43{letter-spacing:0.01em;}.cls-44{letter-spacing:-0.08em;}.cls-45{letter-spacing:0em;}</style><clipPath id="clip-path" transform="translate(-209.98 -93.79)"><rect class="cls-1" x="1187.59" y="1321.27" width="619.33" height="302.06" rx="20" ry="20"/></clipPath><clipPath id="clip-path-2" transform="translate(-209.98 -93.79)"><rect class="cls-1" x="2151.14" y="1321.27" width="253.2" height="302.06" rx="20" ry="20"/></clipPath><clipPath id="clip-path-3" transform="translate(-209.98 -93.79)"><path class="cls-1" d="M2444.25,1321.27h145.26a20,20,0,0,1,20,20v282.06a0,0,0,0,1,0,0h-51.86a133.4,133.4,0,0,1-133.4-133.4V1341.27A20,20,0,0,1,2444.25,1321.27Z"/></clipPath><clipPath id="clip-path-4" transform="translate(-209.98 -93.79)"><rect class="cls-1" x="525.99" y="1321.27" width="619.33" height="302.06" rx="20" ry="20"/></clipPath><clipPath id="clip-path-5" transform="translate(-209.98 -93.79)"><path class="cls-1" d="M2114.43,1321.27h-268a20,20,0,0,0-20,20v584.12h308V1341.27A20,20,0,0,0,2114.43,1321.27Z"/></clipPath></defs><title>bg</title><path class="cls-2" d="M545.08,1192.08c396,68.34,163.8-687.46,703.21-366.64C1462.8,953,1771.68,798.63,2067.48,883c271.66,77.5,204.74,331.79,178.46,415-53.1,168.07,211.34,101,364.61,173.25,240.44,113.26,215.11,570.92-12,572.83s-2031.44-4.8-2031.44-4.8S468,1975.13,415.32,1842.93C307.43,1571.9,196.42,1131.9,545.08,1192.08Z" transform="translate(-209.98 -93.79)"/><polygon class="cls-3" points="1971.51 958.49 1971.51 845.16 1937.11 845.16 1937.11 650.29 1752.64 650.29 1752.64 845.16 1580.19 845.16 1580.19 578.05 1389.88 506.02 1389.88 733.75 1346.49 733.75 1346.49 430.48 1156.18 493.55 1156.18 949.07 915.51 949.07 915.51 1218.12 825.58 1218.12 825.58 1285.9 619.02 1285.9 619.02 1169.19 500.43 1169.19 500.43 852.03 353.93 852.03 353.93 1437.5 353.93 1946.95 479.5 1946.95 500.43 1946.95 619.02 1946.95 686.05 1946.95 793.42 1946.95 825.58 1946.95 915.51 1946.95 999.98 1946.95 1156.18 1946.95 1204.02 1946.95 1299.19 1946.95 1346.49 1946.95 1389.88 1946.95 1489.5 1946.95 1557.31 1946.95 1580.19 1946.95 1752.64 1946.95 1934.02 1946.95 1937.11 1946.95 1971.51 1946.95 2118.48 1946.95 2118.48 958.49 1971.51 958.49"/><rect class="cls-4" x="1184.62" y="516.61" width="128.38" height="47.01"/><rect class="cls-4" x="1184.62" y="604.93" width="128.38" height="47.01"/><rect class="cls-4" x="1184.62" y="684.39" width="128.38" height="47.01"/><rect class="cls-4" x="353.93" y="1065.7" width="149.21" height="72.57"/><rect class="cls-4" x="353.93" y="1288.45" width="147.79" height="72.57"/><rect class="cls-4" x="353.93" y="1398.07" width="147.79" height="72.57"/><rect class="cls-4" x="351.52" y="1512.75" width="147.79" height="72.57"/><rect class="cls-4" x="351.52" y="1625.07" width="147.79" height="72.57"/><rect class="cls-4" x="351.52" y="1739.76" width="147.79" height="72.57"/><rect class="cls-4" x="1414.95" y="684.39" width="135.02" height="47.01"/><rect class="cls-4" x="1414.95" y="605.65" width="135.02" height="47.01"/><rect class="cls-4" x="1181.35" y="761.43" width="368.61" height="47.01"/><rect class="cls-4" x="1181.35" y="832.12" width="368.61" height="47.01"/><rect class="cls-4" x="1181.35" y="902.33" width="368.61" height="45.21"/><rect class="cls-4" x="353.93" y="1178.83" width="147.79" height="72.57"/><rect class="cls-4" x="952.36" y="993.16" width="32.26" height="45.47"/><rect class="cls-4" x="1012.69" y="993.16" width="32.26" height="45.47"/><rect class="cls-4" x="1071.67" y="993.16" width="32.26" height="45.47"/><rect class="cls-4" x="1127.59" y="993.16" width="32.26" height="45.47"/><rect class="cls-4" x="1184.58" y="993.16" width="32.26" height="45.47"/><rect class="cls-4" x="1242.23" y="993.16" width="32.26" height="45.47"/><rect class="cls-4" x="1302.56" y="993.16" width="32.26" height="45.47"/><rect class="cls-4" x="1361.53" y="993.16" width="32.26" height="45.47"/><rect class="cls-4" x="1417.45" y="993.16" width="32.26" height="45.47"/><rect class="cls-4" x="1474.45" y="993.16" width="32.26" height="45.47"/><rect class="cls-4" x="1533.84" y="993.16" width="32.26" height="45.47"/><rect class="cls-4" x="1594.17" y="993.16" width="32.26" height="45.47"/><rect class="cls-4" x="1653.15" y="993.16" width="32.26" height="45.47"/><rect class="cls-4" x="1709.07" y="993.16" width="32.26" height="45.47"/><rect class="cls-4" x="1766.06" y="993.16" width="32.26" height="45.47"/><rect class="cls-4" x="1823.7" y="993.16" width="32.26" height="45.47"/><rect class="cls-4" x="1884.03" y="993.16" width="32.26" height="45.47"/><rect class="cls-4" x="1943.01" y="993.16" width="32.26" height="45.47"/><rect class="cls-4" x="1998.93" y="993.16" width="32.26" height="45.47"/><rect class="cls-4" x="2055.93" y="993.16" width="32.26" height="45.47"/><rect class="cls-4" x="952.36" y="1073.4" width="32.26" height="45.47"/><rect class="cls-4" x="1012.69" y="1073.4" width="32.26" height="45.47"/><rect class="cls-4" x="1071.67" y="1073.4" width="32.26" height="45.47"/><rect class="cls-4" x="1127.59" y="1073.4" width="32.26" height="45.47"/><rect class="cls-4" x="1184.58" y="1073.4" width="32.26" height="45.47"/><rect class="cls-4" x="1242.23" y="1073.4" width="32.26" height="45.47"/><rect class="cls-4" x="1302.56" y="1073.4" width="32.26" height="45.47"/><rect class="cls-4" x="1361.53" y="1073.4" width="32.26" height="45.47"/><rect class="cls-4" x="1417.45" y="1073.4" width="32.26" height="45.47"/><rect class="cls-4" x="1474.45" y="1073.4" width="32.26" height="45.47"/><rect class="cls-4" x="1533.84" y="1073.4" width="32.26" height="45.47"/><rect class="cls-4" x="1594.17" y="1073.4" width="32.26" height="45.47"/><rect class="cls-4" x="1653.15" y="1073.4" width="32.26" height="45.47"/><rect class="cls-4" x="1709.07" y="1073.4" width="32.26" height="45.47"/><rect class="cls-4" x="1766.06" y="1073.4" width="32.26" height="45.47"/><rect class="cls-4" x="1823.7" y="1073.4" width="32.26" height="45.47"/><rect class="cls-4" x="1884.03" y="1073.4" width="32.26" height="45.47"/><rect class="cls-4" x="1943.01" y="1073.4" width="32.26" height="45.47"/><rect class="cls-4" x="1998.93" y="1073.4" width="32.26" height="45.47"/><rect class="cls-4" x="2055.93" y="1073.4" width="32.26" height="45.47"/><rect class="cls-4" x="952.36" y="1152.42" width="32.26" height="45.47"/><rect class="cls-4" x="1012.69" y="1152.42" width="32.26" height="45.47"/><rect class="cls-4" x="1071.67" y="1152.42" width="32.26" height="45.47"/><rect class="cls-4" x="1127.59" y="1152.42" width="32.26" height="45.47"/><rect class="cls-4" x="1184.58" y="1152.42" width="32.26" height="45.47"/><rect class="cls-4" x="1242.23" y="1152.42" width="32.26" height="45.47"/><rect class="cls-4" x="1302.56" y="1152.42" width="32.26" height="45.47"/><rect class="cls-4" x="1361.53" y="1152.42" width="32.26" height="45.47"/><rect class="cls-4" x="1417.45" y="1152.42" width="32.26" height="45.47"/><rect class="cls-4" x="1474.45" y="1152.42" width="32.26" height="45.47"/><rect class="cls-4" x="1533.84" y="1152.42" width="32.26" height="45.47"/><rect class="cls-4" x="1594.17" y="1152.42" width="32.26" height="45.47"/><rect class="cls-4" x="1653.15" y="1152.42" width="32.26" height="45.47"/><rect class="cls-4" x="1709.07" y="1152.42" width="32.26" height="45.47"/><rect class="cls-4" x="1766.06" y="1152.42" width="32.26" height="45.47"/><rect class="cls-4" x="1823.7" y="1152.42" width="32.26" height="45.47"/><rect class="cls-4" x="1884.03" y="1152.42" width="32.26" height="45.47"/><rect class="cls-4" x="1943.01" y="1152.42" width="32.26" height="45.47"/><rect class="cls-4" x="1998.93" y="1152.42" width="32.26" height="45.47"/><rect class="cls-4" x="2055.93" y="1152.42" width="32.26" height="45.47"/><rect class="cls-4" x="952.36" y="1236.36" width="32.26" height="45.47"/><rect class="cls-4" x="1012.69" y="1236.36" width="32.26" height="45.47"/><rect class="cls-4" x="1071.67" y="1236.36" width="32.26" height="45.47"/><rect class="cls-4" x="1127.59" y="1236.36" width="32.26" height="45.47"/><rect class="cls-4" x="1184.58" y="1236.36" width="32.26" height="45.47"/><rect class="cls-4" x="1242.23" y="1236.36" width="32.26" height="45.47"/><rect class="cls-4" x="1302.56" y="1236.36" width="32.26" height="45.47"/><rect class="cls-4" x="1361.53" y="1236.36" width="32.26" height="45.47"/><rect class="cls-4" x="1417.45" y="1236.36" width="32.26" height="45.47"/><rect class="cls-4" x="1474.45" y="1236.36" width="32.26" height="45.47"/><rect class="cls-4" x="1533.84" y="1236.36" width="32.26" height="45.47"/><rect class="cls-4" x="1594.17" y="1236.36" width="32.26" height="45.47"/><rect class="cls-4" x="1653.15" y="1236.36" width="32.26" height="45.47"/><rect class="cls-4" x="1709.07" y="1236.36" width="32.26" height="45.47"/><rect class="cls-4" x="1766.06" y="1236.36" width="32.26" height="45.47"/><rect class="cls-4" x="1823.7" y="1236.36" width="32.26" height="45.47"/><rect class="cls-4" x="1884.03" y="1236.36" width="32.26" height="45.47"/><rect class="cls-4" x="1943.01" y="1236.36" width="32.26" height="45.47"/><rect class="cls-4" x="1998.93" y="1236.36" width="32.26" height="45.47"/><rect class="cls-4" x="2055.93" y="1236.36" width="32.26" height="45.47"/><rect class="cls-4" x="952.36" y="1316.61" width="32.26" height="45.47"/><rect class="cls-4" x="1012.69" y="1316.61" width="32.26" height="45.47"/><rect class="cls-4" x="1071.67" y="1316.61" width="32.26" height="45.47"/><rect class="cls-4" x="1127.59" y="1316.61" width="32.26" height="45.47"/><rect class="cls-4" x="1184.58" y="1316.61" width="32.26" height="45.47"/><rect class="cls-4" x="1242.23" y="1316.61" width="32.26" height="45.47"/><rect class="cls-4" x="1302.56" y="1316.61" width="32.26" height="45.47"/><rect class="cls-4" x="1361.53" y="1316.61" width="32.26" height="45.47"/><rect class="cls-4" x="1417.45" y="1316.61" width="32.26" height="45.47"/><rect class="cls-4" x="1474.45" y="1316.61" width="32.26" height="45.47"/><rect class="cls-4" x="1533.84" y="1316.61" width="32.26" height="45.47"/><rect class="cls-4" x="1594.17" y="1316.61" width="32.26" height="45.47"/><rect class="cls-4" x="1653.15" y="1316.61" width="32.26" height="45.47"/><rect class="cls-4" x="1709.07" y="1316.61" width="32.26" height="45.47"/><rect class="cls-4" x="1766.06" y="1316.61" width="32.26" height="45.47"/><rect class="cls-4" x="1823.7" y="1316.61" width="32.26" height="45.47"/><rect class="cls-4" x="1884.03" y="1316.61" width="32.26" height="45.47"/><rect class="cls-4" x="1998.93" y="1316.61" width="32.26" height="45.47"/><rect class="cls-4" x="1943.01" y="1316.61" width="32.26" height="45.47"/><rect class="cls-4" x="2055.93" y="1316.61" width="32.26" height="45.47"/><rect class="cls-4" x="952.36" y="1395.62" width="32.26" height="45.47"/><rect class="cls-4" x="1012.69" y="1395.62" width="32.26" height="45.47"/><rect class="cls-4" x="1071.67" y="1395.62" width="32.26" height="45.47"/><rect class="cls-4" x="1127.59" y="1395.62" width="32.26" height="45.47"/><rect class="cls-4" x="1184.58" y="1395.62" width="32.26" height="45.47"/><rect class="cls-4" x="1242.23" y="1395.62" width="32.26" height="45.47"/><rect class="cls-4" x="1302.56" y="1395.62" width="32.26" height="45.47"/><rect class="cls-4" x="1361.53" y="1395.62" width="32.26" height="45.47"/><rect class="cls-4" x="1417.45" y="1395.62" width="32.26" height="45.47"/><rect class="cls-4" x="1474.45" y="1395.62" width="32.26" height="45.47"/><rect class="cls-4" x="1533.84" y="1395.62" width="32.26" height="45.47"/><rect class="cls-4" x="1594.17" y="1395.62" width="32.26" height="45.47"/><rect class="cls-4" x="1653.15" y="1395.62" width="32.26" height="45.47"/><rect class="cls-4" x="1709.07" y="1395.62" width="32.26" height="45.47"/><rect class="cls-4" x="1766.06" y="1395.62" width="32.26" height="45.47"/><rect class="cls-4" x="1823.7" y="1395.62" width="32.26" height="45.47"/><rect class="cls-4" x="1884.03" y="1395.62" width="32.26" height="45.47"/><rect class="cls-4" x="1998.93" y="1395.62" width="32.26" height="45.47"/><rect class="cls-4" x="2055.93" y="1395.62" width="32.26" height="45.47"/><polygon class="cls-4" points="671.5 998.98 671.5 904.4 675.38 904.4 675.38 998.98 728.61 998.98 728.61 1115.7 619 1115.7 619 998.98 671.5 998.98"/><polygon class="cls-4" points="353.93 924.73 353.93 852.16 384.76 852.16 384.76 820.58 388.65 820.58 388.65 852.16 501.09 852.16 503.14 852.16 524.41 852.16 524.41 820.58 528.29 820.58 528.29 852.16 555.58 852.16 555.58 1169.29 501.09 1169.29 501.09 1032.65 353.93 1032.65 353.93 960.08 501.09 960.08 501.09 924.73 353.93 924.73"/><rect class="cls-3" x="2323.42" y="1228.65" width="7.6" height="97.32"/><rect class="cls-4" x="789.81" y="1606.54" width="738.85" height="432.19" transform="translate(2108.5 3551.49) rotate(180)"/><rect class="cls-3" x="1460.29" y="1650.85" width="39.39" height="60.15" transform="translate(2749.99 3268.05) rotate(180)"/><rect class="cls-3" x="1390.83" y="1650.85" width="39.39" height="60.15" transform="translate(2611.06 3268.05) rotate(180)"/><rect class="cls-3" x="1320.9" y="1650.85" width="39.39" height="60.15" transform="translate(2471.21 3268.05) rotate(180)"/><rect class="cls-3" x="1251.43" y="1650.85" width="39.39" height="60.15" transform="translate(2332.27 3268.05) rotate(180)"/><rect class="cls-3" x="1179.89" y="1650.85" width="39.39" height="60.15" transform="translate(2189.19 3268.05) rotate(180)"/><rect class="cls-3" x="1110.42" y="1650.85" width="39.39" height="60.15" transform="translate(2050.26 3268.05) rotate(180)"/><rect class="cls-3" x="1040.49" y="1650.85" width="39.39" height="60.15" transform="translate(1910.4 3268.05) rotate(180)"/><rect class="cls-3" x="971.03" y="1650.85" width="39.39" height="60.15" transform="translate(1771.47 3268.05) rotate(180)"/><rect class="cls-3" x="898.17" y="1650.85" width="39.39" height="60.15" transform="translate(1625.76 3268.05) rotate(180)"/><rect class="cls-3" x="828.71" y="1650.85" width="39.39" height="60.15" transform="translate(1486.83 3268.05) rotate(180)"/><rect class="cls-3" x="1460.29" y="1739.8" width="39.39" height="60.15" transform="translate(2749.99 3445.95) rotate(180)"/><rect class="cls-3" x="1390.83" y="1739.8" width="39.39" height="60.15" transform="translate(2611.06 3445.95) rotate(180)"/><rect class="cls-3" x="1320.9" y="1739.8" width="39.39" height="60.15" transform="translate(2471.21 3445.95) rotate(180)"/><rect class="cls-3" x="1251.43" y="1739.8" width="39.39" height="60.15" transform="translate(2332.27 3445.95) rotate(180)"/><rect class="cls-3" x="1179.89" y="1739.8" width="39.39" height="60.15" transform="translate(2189.19 3445.95) rotate(180)"/><rect class="cls-3" x="1110.42" y="1739.8" width="39.39" height="60.15" transform="translate(2050.26 3445.95) rotate(180)"/><rect class="cls-3" x="1040.49" y="1739.8" width="39.39" height="60.15" transform="translate(1910.4 3445.95) rotate(180)"/><rect class="cls-3" x="971.03" y="1739.8" width="39.39" height="60.15" transform="translate(1771.47 3445.95) rotate(180)"/><rect class="cls-3" x="898.17" y="1739.8" width="39.39" height="60.15" transform="translate(1625.76 3445.95) rotate(180)"/><rect class="cls-3" x="828.71" y="1739.8" width="39.39" height="60.15" transform="translate(1486.83 3445.95) rotate(180)"/><rect class="cls-3" x="1460.29" y="1835.35" width="39.39" height="60.15" transform="translate(2749.99 3637.05) rotate(180)"/><rect class="cls-3" x="1390.83" y="1835.35" width="39.39" height="60.15" transform="translate(2611.06 3637.05) rotate(180)"/><rect class="cls-3" x="1320.9" y="1835.35" width="39.39" height="60.15" transform="translate(2471.21 3637.05) rotate(180)"/><rect class="cls-3" x="1251.43" y="1835.35" width="39.39" height="60.15" transform="translate(2332.27 3637.05) rotate(180)"/><rect class="cls-3" x="1179.89" y="1835.35" width="39.39" height="60.15" transform="translate(2189.19 3637.05) rotate(180)"/><rect class="cls-3" x="1110.42" y="1835.35" width="39.39" height="60.15" transform="translate(2050.26 3637.05) rotate(180)"/><rect class="cls-3" x="1040.49" y="1835.35" width="39.39" height="60.15" transform="translate(1910.4 3637.05) rotate(180)"/><rect class="cls-3" x="971.03" y="1835.35" width="39.39" height="60.15" transform="translate(1771.47 3637.05) rotate(180)"/><rect class="cls-3" x="898.17" y="1835.35" width="39.39" height="60.15" transform="translate(1625.76 3637.05) rotate(180)"/><rect class="cls-3" x="828.71" y="1835.35" width="39.39" height="60.15" transform="translate(1486.83 3637.05) rotate(180)"/><rect class="cls-3" x="1460.29" y="1924.3" width="39.39" height="60.15" transform="translate(2749.99 3814.95) rotate(180)"/><rect class="cls-3" x="1390.83" y="1924.3" width="39.39" height="60.15" transform="translate(2611.06 3814.95) rotate(180)"/><rect class="cls-3" x="1320.9" y="1924.3" width="39.39" height="60.15" transform="translate(2471.21 3814.95) rotate(180)"/><rect class="cls-3" x="1251.43" y="1924.3" width="39.39" height="60.15" transform="translate(2332.27 3814.95) rotate(180)"/><rect class="cls-3" x="1179.89" y="1924.3" width="39.39" height="60.15" transform="translate(2189.19 3814.95) rotate(180)"/><rect class="cls-3" x="1110.42" y="1924.3" width="39.39" height="60.15" transform="translate(2050.26 3814.95) rotate(180)"/><rect class="cls-3" x="1040.49" y="1924.3" width="39.39" height="60.15" transform="translate(1910.4 3814.95) rotate(180)"/><rect class="cls-3" x="971.03" y="1924.3" width="39.39" height="60.15" transform="translate(1771.47 3814.95) rotate(180)"/><rect class="cls-3" x="898.17" y="1924.3" width="39.39" height="60.15" transform="translate(1625.76 3814.95) rotate(180)"/><rect class="cls-3" x="828.71" y="1924.3" width="39.39" height="60.15" transform="translate(1486.83 3814.95) rotate(180)"/><polygon class="cls-4" points="834.37 1532.49 680.19 1532.49 680.19 1398.07 834.37 1457.1 834.37 1532.49"/><polygon class="cls-4" points="1594.25 1944.95 1947.08 1944.95 1947.08 1561.14 1594.25 1683.28 1594.25 1944.95"/><rect class="cls-3" x="1813.55" y="1789.78" width="334.2" height="11.86" transform="translate(3751.31 3497.63) rotate(180)"/><rect class="cls-3" x="1813.55" y="1827.9" width="334.2" height="11.86" transform="translate(3751.31 3573.87) rotate(180)"/><rect class="cls-3" x="1813.55" y="1866.02" width="334.2" height="11.86" transform="translate(3751.31 3650.11) rotate(180)"/><rect class="cls-3" x="1813.55" y="1904.14" width="334.2" height="11.86" transform="translate(3751.31 3726.35) rotate(180)"/><rect class="cls-3" x="1813.55" y="1942.26" width="334.2" height="11.86" transform="translate(3751.31 3802.6) rotate(180)"/><rect class="cls-3" x="1813.55" y="1980.38" width="334.2" height="11.86" transform="translate(3751.31 3878.84) rotate(180)"/><rect class="cls-4" x="860.52" y="1491.86" width="29.65" height="114.69" transform="translate(1540.7 3004.61) rotate(180)"/><rect class="cls-3" x="933.12" y="1539.02" width="39.39" height="60.15" transform="translate(2311.93 522.49) rotate(90)"/><rect class="cls-4" x="2105.06" y="760.08" width="20.45" height="173.45" transform="translate(4020.59 1599.82) rotate(180)"/><rect class="cls-4" x="2064.4" y="760.08" width="20.45" height="173.45" transform="translate(3939.26 1599.82) rotate(180)"/><rect class="cls-4" x="2024.29" y="760.08" width="20.45" height="173.45" transform="translate(3859.04 1599.82) rotate(180)"/><rect class="cls-4" x="1982.77" y="760.08" width="20.45" height="173.45" transform="translate(3776.01 1599.82) rotate(180)"/><rect class="cls-5" x="631.83" y="1685.04" width="1680.79" height="131.24"/><circle class="cls-6" cx="2127.77" cy="1837.48" r="109.3"/><path class="cls-7" d="M2337.76,1863.55a67.72,67.72,0,1,0,67.72,67.72A67.72,67.72,0,0,0,2337.76,1863.55ZM2347,1871a60.85,60.85,0,0,1,37,20.62l-23.47,14.49a34,34,0,0,0-13.56-7.52Zm-18.55,0v27.59a34,34,0,0,0-13.56,7.52l-23.47-14.49A60.85,60.85,0,0,1,2328.48,1871Zm-47,84a61.21,61.21,0,0,1,.13-47.59l23.46,14.49a34,34,0,0,0-.09,18.59Zm47,36.65a60.93,60.93,0,0,1-37.24-20.85l23.45-14.48a33.92,33.92,0,0,0,13.79,7.74Zm-6.1-60.3a15.38,15.38,0,1,1,15.38,15.38A15.37,15.37,0,0,1,2322.38,1931.27Zm24.65,60.3V1964a33.92,33.92,0,0,0,13.79-7.74l23.45,14.48A60.93,60.93,0,0,1,2347,1991.57Zm23.47-51.16a33.89,33.89,0,0,0-.08-18.59l23.45-14.49a61.09,61.09,0,0,1,.13,47.59Z" transform="translate(-209.98 -93.79)"/><circle class="cls-6" cx="767.77" cy="1837.48" r="109.3"/><path class="cls-7" d="M977.76,1863.55a67.72,67.72,0,1,0,67.72,67.72A67.71,67.71,0,0,0,977.76,1863.55ZM987,1871a60.85,60.85,0,0,1,37,20.62l-23.47,14.49a34,34,0,0,0-13.56-7.52Zm-18.55,0v27.59a34,34,0,0,0-13.56,7.52l-23.47-14.49A60.85,60.85,0,0,1,968.48,1871Zm-47,84a61.21,61.21,0,0,1,.13-47.59l23.46,14.49a34,34,0,0,0-.09,18.59Zm47,36.65a60.93,60.93,0,0,1-37.24-20.85l23.45-14.48a33.92,33.92,0,0,0,13.79,7.74Zm-6.1-60.3a15.38,15.38,0,1,1,15.38,15.38A15.37,15.37,0,0,1,962.38,1931.27Zm24.65,60.3V1964a33.92,33.92,0,0,0,13.79-7.74l23.45,14.48A60.93,60.93,0,0,1,987,1991.57Zm23.47-51.16a33.89,33.89,0,0,0-.08-18.59l23.45-14.49a61.09,61.09,0,0,1,.13,47.59Z" transform="translate(-209.98 -93.79)"/><path class="cls-8" d="M1550.43,1238.78h-956v-29.46a24.05,24.05,0,0,1,24.05-24h881.94a24.06,24.06,0,0,1,19.7,10.25Z" transform="translate(-209.98 -93.79)"/><polygon class="cls-9" points="384.44 1127.48 384.44 1144.99 1340.44 1144.99 1328.18 1127.48 384.44 1127.48"/><path class="cls-8" d="M2547.73,1238.78H535.09a61.79,61.79,0,0,0-61.79,61.79v562.54A31.45,31.45,0,0,0,499,1894l169.4,31.36H856.62a120,120,0,1,1,240,0h1120a120,120,0,0,1,240,0h122.27a30.62,30.62,0,0,0,30.62-30.62v-594.2A61.79,61.79,0,0,0,2547.73,1238.78Z" transform="translate(-209.98 -93.79)"/><path class="cls-9" d="M2435.69,1857.67a119.47,119.47,0,0,1,20.93,67.72h122.27a30.61,30.61,0,0,0,30.62-30.62h0a37.1,37.1,0,0,0-37.1-37.1Z" transform="translate(-209.98 -93.79)"/><path class="cls-9" d="M473.3,1857.67v5.44A31.45,31.45,0,0,0,499,1894l169.4,31.36H856.62a119.47,119.47,0,0,1,20.93-67.72Z" transform="translate(-209.98 -93.79)"/><path class="cls-9" d="M1075.69,1857.67a119.47,119.47,0,0,1,20.93,67.72h1120a119.47,119.47,0,0,1,20.93-67.72Z" transform="translate(-209.98 -93.79)"/><rect class="cls-10" x="250.44" y="1598.82" width="27.33" height="144.67"/><rect class="cls-11" x="250.44" y="1559.59" width="27.33" height="27.33"/><rect class="cls-10" x="2385.44" y="1591.48" width="14.09" height="130.82"/><rect class="cls-12" x="977.61" y="1227.48" width="619.33" height="302.06" rx="20" ry="20"/><rect class="cls-12" x="1941.15" y="1227.48" width="253.2" height="302.06" rx="20" ry="20"/><path class="cls-12" d="M2234.27,1227.48h145.26a20,20,0,0,1,20,20v282.06a0,0,0,0,1,0,0h-51.86a133.4,133.4,0,0,1-133.4-133.4V1247.48A20,20,0,0,1,2234.27,1227.48Z"/><rect class="cls-7" x="977.61" y="1227.48" width="619.33" height="302.06" rx="20" ry="20"/><rect class="cls-7" x="1941.15" y="1227.48" width="253.2" height="302.06" rx="20" ry="20"/><path class="cls-7" d="M2234.27,1227.48h145.26a20,20,0,0,1,20,20v282.06a0,0,0,0,1,0,0h-51.86a133.4,133.4,0,0,1-133.4-133.4V1247.48A20,20,0,0,1,2234.27,1227.48Z"/><rect class="cls-12" x="316.01" y="1227.48" width="619.33" height="302.06" rx="20" ry="20"/><rect class="cls-7" x="316.01" y="1227.48" width="619.33" height="302.06" rx="20" ry="20"/><path class="cls-7" d="M2114.43,1321.27h-268a20,20,0,0,0-20,20v584.12h308V1341.27A20,20,0,0,0,2114.43,1321.27Z" transform="translate(-209.98 -93.79)"/><g class="cls-13"><polygon class="cls-3" points="990.95 1695 905.45 1695 1281.93 1031.65 1367.43 1031.65 990.95 1695"/><polygon class="cls-3" points="1130.4 1710.19 1044.9 1710.19 1421.38 1046.84 1506.88 1046.84 1130.4 1710.19"/><polygon class="cls-3" points="1381.9 1723.69 1296.4 1723.69 1672.88 1060.34 1758.38 1060.34 1381.9 1723.69"/><polygon class="cls-3" points="1183.44 1722.3 1160.9 1722.3 1537.38 1058.95 1559.93 1058.95 1183.44 1722.3"/></g><g class="cls-14"><polygon class="cls-3" points="1970 1660.83 1884.51 1660.83 2260.99 997.48 2346.49 997.48 1970 1660.83"/><polygon class="cls-3" points="2023.05 1672.95 2000.51 1672.95 2376.99 1009.59 2399.53 1009.59 2023.05 1672.95"/></g><g class="cls-15"><polygon class="cls-3" points="2174.47 1648.72 2131.72 1648.72 2508.2 985.36 2550.95 985.36 2174.47 1648.72"/><polygon class="cls-3" points="2227.51 1660.83 2204.97 1660.83 2581.45 997.48 2604 997.48 2227.51 1660.83"/></g><g class="cls-16"><polygon class="cls-3" points="319.95 1688 234.45 1688 610.93 1024.65 696.43 1024.65 319.95 1688"/><polygon class="cls-3" points="614.95 1688 529.45 1688 905.93 1024.65 991.43 1024.65 614.95 1688"/><polygon class="cls-3" points="368.96 1688 346.45 1688 722.93 1024.65 745.45 1024.65 368.96 1688"/></g><g class="cls-17"><polygon class="cls-3" points="1507.07 1850.24 1421.58 1850.24 1798.06 1186.89 1883.56 1186.89 1507.07 1850.24"/><polygon class="cls-3" points="1560.12 1862.36 1537.58 1862.36 1914.06 1199 1936.6 1199 1560.12 1862.36"/><polygon class="cls-3" points="1711.54 1838.13 1668.79 1838.13 2045.27 1174.78 2088.02 1174.78 1711.54 1838.13"/></g><rect class="cls-12" x="1761.93" y="1227.48" width="16.5" height="604.12"/><path class="cls-12" d="M1125.32,1628.33H546a25,25,0,0,1-25-25V1341.27a25,25,0,0,1,25-25h579.33a25,25,0,0,1,25,25v262.06A25,25,0,0,1,1125.32,1628.33ZM546,1326.27a15,15,0,0,0-15,15v262.06a15,15,0,0,0,15,15h579.33a15,15,0,0,0,15-15V1341.27a15,15,0,0,0-15-15Z" transform="translate(-209.98 -93.79)"/><path class="cls-12" d="M1786.92,1628.33H1207.59a25,25,0,0,1-25-25V1341.27a25,25,0,0,1,25-25h579.33a25,25,0,0,1,25,25v262.06A25,25,0,0,1,1786.92,1628.33Zm-579.33-302.06a15,15,0,0,0-15,15v262.06a15,15,0,0,0,15,15h579.33a15,15,0,0,0,15-15V1341.27a15,15,0,0,0-15-15Z" transform="translate(-209.98 -93.79)"/><path class="cls-12" d="M2139.43,1930.39h-318V1341.27a25,25,0,0,1,25-25h268a25,25,0,0,1,25,25Zm-308-10h298V1341.27a15,15,0,0,0-15-15h-268a15,15,0,0,0-15,15Z" transform="translate(-209.98 -93.79)"/><path class="cls-12" d="M2384.34,1628.33h-213.2a25,25,0,0,1-25-25V1341.27a25,25,0,0,1,25-25h213.2a25,25,0,0,1,25,25v262.06A25,25,0,0,1,2384.34,1628.33Zm-213.2-302.06a15,15,0,0,0-15,15v262.06a15,15,0,0,0,15,15h213.2a15,15,0,0,0,15-15V1341.27a15,15,0,0,0-15-15Z" transform="translate(-209.98 -93.79)"/><path class="cls-12" d="M2603.77,1628.33h-46.12c-76.31,0-138.4-62.08-138.4-138.39V1341.27a25,25,0,0,1,25-25h145.26a25,25,0,0,1,25,25v276.32A10.75,10.75,0,0,1,2603.77,1628.33Zm-159.52-302.06a15,15,0,0,0-15,15v148.67c0,70.79,57.6,128.39,128.4,128.39h46.12a.74.74,0,0,0,.74-.74V1341.27a15,15,0,0,0-15-15Z" transform="translate(-209.98 -93.79)"/><rect class="cls-8" x="1581.44" y="1831.61" width="377.5" height="17.88"/><rect class="cls-9" x="1564.94" y="1849.48" width="410.5" height="17.88"/><path class="cls-8" d="M2657.09,1509.94h0a21.33,21.33,0,0,1-21.33-21.34V1313.94a21.33,21.33,0,0,1,21.33-21.34h0a21.33,21.33,0,0,1,21.34,21.34V1488.6A21.33,21.33,0,0,1,2657.09,1509.94Z" transform="translate(-209.98 -93.79)"/><path class="cls-9" d="M2648,1306.52H2447.34a13.92,13.92,0,0,1-13.91-13.92h0a13.91,13.91,0,0,1,13.91-13.91H2648a13.92,13.92,0,0,1,13.92,13.91h0A13.92,13.92,0,0,1,2648,1306.52Z" transform="translate(-209.98 -93.79)"/><path class="cls-18" d="M1728.56,1605.92c1-3.19,1.82-5.51,2.21-6.66l.28-.81a9.25,9.25,0,0,1,.83,1c3.22,4,14.26,21.35,6,61.44-1.22,5.9-2.86,12.29-5,19.21,0,0,30.56-5.4,39.19-11.14.36-.9,4.85-14.21,8.27-16s9.7-3.78,11.14-3.06,4.13,10.79,0,16-14.74,10.24-14.74,10.24-34.15,27.33-57.88,26.6C1699,1702.09,1720.85,1629.7,1728.56,1605.92Z" transform="translate(-209.98 -93.79)"/><path class="cls-19" d="M1582.32,1783a42,42,0,0,0,1.68-8.09c17.26,7.55,36.13,4.32,36.13,4.32,1.62,6.65.2,15.9.2,15.9-19.41,5.22-40.93-6.2-40.93-6.2A47,47,0,0,0,1582.32,1783Z" transform="translate(-209.98 -93.79)"/><path class="cls-20" d="M1608.83,1731.45c.77,1.89,4.15,3.57,9,4.78l1.39.33c11,2.4,28.49,2.53,41.35-2.23,14.39-5.33,24.83-81.39,29.27-120.38.06-.6.13-1.19.19-1.77,1.42-12.61,2.18-20.92,2.18-20.92s-8.27-12.94-40.27-8.63-35.22,15.1-38.1,34.51S1606.31,1725.34,1608.83,1731.45Z" transform="translate(-209.98 -93.79)"/><path class="cls-21" d="M1619.24,1736.56c11,2.4,28.49,2.53,41.35-2.23,14.39-5.33,24.83-81.39,29.27-120.38.06-.6.13-1.19.19-1.77-3.27-11.3-5.73-18.52-5.73-18.52s-40.17-4.85-48,7.28C1629.5,1611.54,1621.23,1711.53,1619.24,1736.56Z" transform="translate(-209.98 -93.79)"/><path class="cls-18" d="M1601,1774.19c2.36-1.5,4.65-6,5.5-7.87,7.3-18.14,15.73-53.44,18.51-59.93,1-2.37,3-13.51,5.5-27.87,4.57-25.76,11.06-61.88,17.57-76.19.79-1.72,3-3.18,6-4.4,7.78-3.25,20.4-4.84,23.36-5.18,3.15-2.52,7.49-13.35,7.43-29.85l1.41.28,23.7,4.69s-.54,7.46-.55,14.49c0,5.85.34,11.4,1.66,12.1,1.71.15,2.72.26,2.72.26s19.76,27.44,21.42,53-15.83,36.62.13,87.62c16.29,52.1-94.41,19.25-88.34,5.61,11-24.67,16.27-31.65,16.46-39.42.13-5.45-2.25-11.3-6.91-23.92l-1.22,4.5c-2.63,9.8-4.89,18.54-5.81,22.9-2.83,13.42-33.9,65-33.9,65h0s-.94.63-2,3.77-9.89,19.77-13.65,19.77-4.55-5.65-5.34-9.26S1598,1776.07,1601,1774.19Z" transform="translate(-209.98 -93.79)"/><path class="cls-22" d="M1654,1496.86c5.25-3.22,13.65.63,13.65.63-2.9-4.08-13.5-2.75-13.5-2.75,21.16-4.5,25.53,9.06,25.87,10.26,15.31-13.81,39.82,15.64,39.82,15.64l-35.17,46.61s-3.21-7.42-7.45-5.1c-6.6,3.61-19.38-11-15.3-30.21a50,50,0,0,1,1.56-5.72,11.4,11.4,0,0,1-4.38,1.09c-3.85,0-9.66-9.81-10.44-13.11S1648.76,1500.08,1654,1496.86Z" transform="translate(-209.98 -93.79)"/><path class="cls-23" d="M1709.91,1567.87s-.54,7.46-.55,14.49c-13.26-.38-20.27-12.48-23.15-19.18Z" transform="translate(-209.98 -93.79)"/><path class="cls-22" d="M1683.77,1560.6s-7-11-8.62-20.37c-1.19-6.71,2.22-31.56,27.19-28a34,34,0,0,1,14.07,5.32c5.42,3.66,13.25,11.57,4.5,33.25l-2.27,7.33Z" transform="translate(-209.98 -93.79)"/><path class="cls-18" d="M1714.34,1574.52s-31.38.52-31.4-19-4.08-32.65,16-33.8,23.93,6.29,25.53,12.82S1722.5,1573.89,1714.34,1574.52Z" transform="translate(-209.98 -93.79)"/><path class="cls-24" d="M1674.74,1977.71a309.76,309.76,0,0,0,19.78,55.48l10.34-.72s-5.07-24.14-4.78-56.76c.21-22.8,3-49.75,12-75.48,31-88.43,26-152.78,26-152.78l-58.22,6.81-2.71.32c-.24,26.74-.93,63-1.54,91.43-.53,25.53-1,44.66-1,44.66C1663.4,1914.78,1667.47,1948.81,1674.74,1977.71Z" transform="translate(-209.98 -93.79)"/><path class="cls-23" d="M1654.64,1672.48c5.88,16.25,8.91,22.87,8.77,29,18.74-29,52.6-33.4,52.6-33.4l-64.3-7.35A60.76,60.76,0,0,0,1654.64,1672.48Z" transform="translate(-209.98 -93.79)"/><path class="cls-10" d="M1641.33,1972.69c3.35,35.73,18.09,58.83,18.09,58.83l4.95,3.6s4.67-25.17,8-55.12c3.16-28.47,7.48-58.59,12.37-67.78,19.42-36.46,25.27-174.11,25.27-174.11l-59-2.92c-5.93,10-8.52,26.35-9.14,45-1.55,47,9.49,108.23,11.14,117.09v0a3.07,3.07,0,0,1-.39,2C1640.83,1922.49,1639.13,1949.09,1641.33,1972.69Z" transform="translate(-209.98 -93.79)"/><path class="cls-22" d="M1691.4,1547.54c-13.18,3.39-18.9-.14-18.9-.14s1-13.4,12.21-22.06c16.29-12.56,27.51-5.55,28.2-4.51,2.06-1.77,5.72-3.06,10.57,2.82,7.28,8.81.81,24.4.81,24.4-3,.35-3.69-9.9-5.26-14.87-1.15-3.67-4.93-7.4-6.84-9.12-.62,2.26-6.93,24.21-22.7,31.5a73.51,73.51,0,0,0,12.6-15.39C1699,1543.64,1695.43,1546.5,1691.4,1547.54Z" transform="translate(-209.98 -93.79)"/><path class="cls-11" d="M1639.56,1758.73a13.88,13.88,0,0,0,.36,4.72c1.26,4,5.57,5.75,16,4.67,6.37-.66,9.22-11.34,10.48-20.46q5.74,19.56,16.12,21.9c10.11,2.24,61.11,8.44,64.45-15.8,3.67-26.66-7.33-73.88-7.93-99.33a126.06,126.06,0,0,0,1.85-23.59c-.43-18.14-5.75-28.3-9.84-32.39-1.16-.89-2.32-1.45-7-2.25-2.38-.4-5.68-.87-10.34-1.48a17.63,17.63,0,0,0-1.87-.15c.87,1.54,12.42,19,11.52,23.53-1,4.71-41.91.47-44.74-2.12s-7.29-22.42-7.29-22.42-14.51,1.59-21.6,6.75l.07.09a6,6,0,0,0-1.86,2c-7.57,14.41-15.13,50.79-20.45,76.74,12.89,7.1,24.15,5,27.64,4.05C1650.59,1713,1640.23,1745.11,1639.56,1758.73Z" transform="translate(-209.98 -93.79)"/><path class="cls-20" d="M1713.73,1594.72a.51.51,0,0,1,.07.1c1.39,2.2,23.15,37,25.24,59.61a126.06,126.06,0,0,0,1.85-23.59c-2.8-8.55-9.59-27.54-16.81-34.64C1723.17,1595.31,1713.73,1594.72,1713.73,1594.72Z" transform="translate(-209.98 -93.79)"/><path class="cls-11" d="M1765.51,1671l9.13-27.43a.91.91,0,0,1,1.15-.58l14.39,4.79a.91.91,0,0,1,.58,1.15l-9.14,27.44a.91.91,0,0,1-1.15.57l-14.39-4.79A.91.91,0,0,1,1765.51,1671Z" transform="translate(-209.98 -93.79)"/><path class="cls-25" d="M1768.8,1671.31l8.69-26.09a1.6,1.6,0,0,1,2-1l13,4.34a1.6,1.6,0,0,1,1,2l-8.68,26.1a1.62,1.62,0,0,1-2.05,1l-13-4.34A1.63,1.63,0,0,1,1768.8,1671.31Z" transform="translate(-209.98 -93.79)"/><path class="cls-18" d="M1641.33,1972.69c3.35,35.73,18.09,58.83,18.09,58.83l5,4.59s4.58-26.16,7.89-56.11C1668.87,1980.25,1653.49,1980.81,1641.33,1972.69Z" transform="translate(-209.98 -93.79)"/><path class="cls-18" d="M1674.74,1977.71a309.76,309.76,0,0,0,19.78,55.48l10.34-.72s-5.07-24.14-4.78-56.76C1696.57,1977.48,1689.32,1979.28,1674.74,1977.71Z" transform="translate(-209.98 -93.79)"/><path class="cls-22" d="M1688.56,2041.86h6.6c2.22-.35,3.85-1,6.12-1.28,3.45-.45,5,1,5.35,1.28l.06.07h28.06c.71-1,0-3.34-.63-5.06a4,4,0,0,0-2.63-2.4c-3-.87-8.84-1.63-14.21-6.5-3-2.73-14.6-10-14.6-10h-.06c-.26,0-1.47.37-6.73,4.82-2.72,2.29-7.36-3.24-7.36-3.24a6.61,6.61,0,0,0-1.52,2.06,6.93,6.93,0,0,0-.6,4.31c.42,2.53-.94,7.23-2,10.4-.66,1.93-1.21,3.3-1.21,3.3S1682.87,2041.15,1688.56,2041.86Z" transform="translate(-209.98 -93.79)"/><path class="cls-20" d="M1687,2021.56c1.58,1.11,4.91,3.3,7.11,3.59,3,.39,8.56-7.22,8.56-7.22h-.06c-.26,0-1.47.37-6.73,4.82-2.72,2.29-7.36-3.24-7.36-3.24A6.61,6.61,0,0,0,1687,2021.56Z" transform="translate(-209.98 -93.79)"/><path class="cls-20" d="M1688.56,2041.86h6.6c2.22-.35,3.85-1,6.12-1.28,3.45-.45,5,1,5.35,1.28l.06.07h28.06c.71-1,0-3.34-.63-5.06-.86-.76-1.1,3.29-1.57,3.93s-22.89.24-24.18-.7-5.18-2.59-10.6-1.3c-4.71,1.13-11.66-1.76-13.37-2.53-.66,1.93-1.21,3.3-1.21,3.3S1682.87,2041.15,1688.56,2041.86Z" transform="translate(-209.98 -93.79)"/><path class="cls-22" d="M1653.31,2041.86h6.6c2.21-.35,3.85-1,6.12-1.28,3.44-.45,5,1,5.35,1.28l.06.07h28.06c.71-1,0-3.34-.64-5.06a4,4,0,0,0-2.62-2.4c-3-.87-8.84-1.63-14.22-6.5-3-2.73-14.59-10-14.59-10h-.06c-.26,0-1.47.37-6.73,4.82-2.72,2.29-7.36-3.24-7.36-3.24a6.61,6.61,0,0,0-1.52,2.06,6.92,6.92,0,0,0-.61,4.31c.42,2.53-.93,7.23-2,10.4-.65,1.93-1.2,3.3-1.2,3.3S1647.62,2041.15,1653.31,2041.86Z" transform="translate(-209.98 -93.79)"/><path class="cls-20" d="M1651.76,2021.56c1.57,1.11,4.9,3.3,7.11,3.59,3,.39,8.56-7.22,8.56-7.22h-.06c-.26,0-1.47.37-6.73,4.82-2.72,2.29-7.36-3.24-7.36-3.24A6.61,6.61,0,0,0,1651.76,2021.56Z" transform="translate(-209.98 -93.79)"/><path class="cls-20" d="M1653.31,2041.86h6.6c2.21-.35,3.85-1,6.12-1.28,3.44-.45,5,1,5.35,1.28l.06.07h28.06c.71-1,0-3.34-.64-5.06-.85-.76-1.09,3.29-1.56,3.93s-22.89.24-24.19-.7-5.18-2.59-10.59-1.3c-4.71,1.13-11.66-1.76-13.38-2.53-.65,1.93-1.2,3.3-1.2,3.3S1647.62,2041.15,1653.31,2041.86Z" transform="translate(-209.98 -93.79)"/><path class="cls-26" d="M1639.56,1758.73c7-2.34,16-8.56,26.78-22.51,28.58-36.94,2.43-80.35-1.08-81.16s-10.1,28.09-10.1,28.09C1650.59,1713,1640.23,1745.11,1639.56,1758.73Z" transform="translate(-209.98 -93.79)"/><path class="cls-20" d="M1655.56,1590.9s28.76,19.59,30.91,61.11-35.22,50-35.22,50l2.42-13.13s30.29-11,22.38-44-31.63-51-31.63-51Z" transform="translate(-209.98 -93.79)"/><path class="cls-18" d="M1792.25,1654.42s-2.7-5.57-7.64-3.33-2.79,10.7.09,13.66a28.39,28.39,0,0,1,3.68,4.32Z" transform="translate(-209.98 -93.79)"/><path class="cls-27" d="M779.57,1712.21s4.76,5.43,2,8.81-7.73,6.29-12.4,3-5.93-15.27-3.24-15.27S779.57,1712.21,779.57,1712.21Z" transform="translate(-209.98 -93.79)"/><path class="cls-24" d="M770.4,1661s13.67,44.57,10.79,51-12.18,5.29-17.41-2.39S770.4,1661,770.4,1661Z" transform="translate(-209.98 -93.79)"/><path class="cls-10" d="M734.74,1561.51s21.06,3.81,28.87,11.62,26.24,30.85,14.65,107.67c0,0-.93,23.15-27,25.38S734.74,1561.51,734.74,1561.51Z" transform="translate(-209.98 -93.79)"/><path class="cls-18" d="M746.42,1559.52a54.83,54.83,0,0,1-.06-9.84h0c.14-1.65.31-2.63.31-2.63l-.31-.1-25.29-7.7-.63-.19c-.37,8.23-.85,14.33-1.36,18.86a67.87,67.87,0,0,1-1.7,10.13h30.76A41.63,41.63,0,0,1,746.42,1559.52Z" transform="translate(-209.98 -93.79)"/><path class="cls-21" d="M756.25,1506.81s-2.9-41.42-56.7-25.74c-12.21,3.56-10.62,40.42,18.94,54.45Z" transform="translate(-209.98 -93.79)"/><path class="cls-18" d="M686.35,1752.55c3.62,25.2,27.91,90.72,27.21,113.37-.56,17.85-.27,59.07,2.09,86.46a167.26,167.26,0,0,0,2.38,18.49c2.09,10.1,4.77,21.74,6.21,29.07,3.21,16.46,1.54,26.06,4.16,34.89,2.88,9.66,36,7.9,26,2-3.56-2.1-8.75-6.54-11.31-12.28-9.3-20.85,3.74-110.76,7.63-145.42.5-4.33.85-7.77,1-10.13,1.3-21.41,16-164,16-164C732.05,1685.16,682.75,1727.34,686.35,1752.55Z" transform="translate(-209.98 -93.79)"/><path class="cls-27" d="M686.35,1752.55c3.62,25.2,27.91,90.72,27.21,113.37-.56,17.85-.27,59.07,2.09,86.46l35.1-73.21c.5-4.33.85-7.77,1-10.13,1.3-21.41,16.36-164.09,16.36-164.09C732.42,1685.11,682.75,1727.34,686.35,1752.55Z" transform="translate(-209.98 -93.79)"/><path class="cls-18" d="M763.78,1709.64s-30.66,140.9-34.14,162.06-31.4,120.76-25.31,145.72c3.59,14.73,9.84,19.08,9.84,19.08,1.48,2.7-22.77,8.06-24.73-2.27-2.48-13.12-3-31.53-6.65-62.74-6.27-53.75,6.17-84.33,9.18-106.79s-10.12-93.86-2.83-118.26C701.9,1703.74,730.32,1686.23,763.78,1709.64Z" transform="translate(-209.98 -93.79)"/><path class="cls-10" d="M682,1839.12s8,1.24,19.73,2.06l6.39-25.62,2.24,26.09c18.88.77,43.53-.17,61.7-7.68l-3.92-129s-26.32,7-58-5.21C710.14,1699.74,669,1731.88,682,1839.12Z" transform="translate(-209.98 -93.79)"/><path class="cls-24" d="M677.57,2015c1.46,8.27,1.76,23.15,1.81,26.93H682l.24-19.62.52.63c2.32,2.58,5.38,15.19,7.64,19h28.75a2.68,2.68,0,0,0-.4-2.39h0c-1.31-2.06-4.58-3.66-4.58-3.66a52.21,52.21,0,0,1-18.35-.87c-3.84-1-10.33-35.06-10.33-35.06s-9.05,5.5-10.06,8C674.92,2009.17,676,2012,677.57,2015Z" transform="translate(-209.98 -93.79)"/><path class="cls-24" d="M717.21,2016.59a217.42,217.42,0,0,1,1.51,22.94h0c0,1,0,1.82,0,2.39h2.59l.23-18.89c2.31,2.8,5.32,15.14,7.55,18.89h28.75c1.1-3.1-5-6.06-5-6.06a52.27,52.27,0,0,1-18.36-.87c-3.83-1-10.33-35.06-10.33-35.06s-9.05,5.5-10.05,8C713.6,2009.39,715.24,2013.12,717.21,2016.59Z" transform="translate(-209.98 -93.79)"/><path class="cls-28" d="M707.92,1701.78s24.17,16.68,60.68,4.48c0,0,12.47-42.67,8.54-83.75-2.64-27.57-18.28-49.27-29.9-57.81-1.83,1.63-5,4.43-28.88-1.35,0,0-10.94,4.59-12.89,8.81C701.32,1581.19,715.26,1683.86,707.92,1701.78Z" transform="translate(-209.98 -93.79)"/><path class="cls-10" d="M697.79,1715.27c10.78,2.21,19.08-5.4,31.83-9a44.34,44.34,0,0,0,10.81-4.44c11.4-7,16.93-58.9,15-78.54s-37-59.89-37-59.89c-8.1,6-9.61,20-14.47,38.33C692.2,1645.83,697.79,1715.27,697.79,1715.27Z" transform="translate(-209.98 -93.79)"/><path class="cls-24" d="M697.79,1715.27c10.78,2.21,22.65-1.8,31.83-9a64.41,64.41,0,0,0,10.43-24.7c5.8-28.63-17.08-59.69-36.16-79.84C692.2,1645.83,697.79,1715.27,697.79,1715.27Z" transform="translate(-209.98 -93.79)"/><path class="cls-23" d="M721.07,1539.25c2.88,4.83,12,18.19,25.35,20.27a54.83,54.83,0,0,1-.06-9.84h0c.14-1.65.31-2.63.31-2.63l-.31-.1Z" transform="translate(-209.98 -93.79)"/><path class="cls-18" d="M753.52,1548.83s-31.4,6.31-35-13.31-10.12-32,9.78-36.86,25.18,1.9,28,8.15S761.59,1546.68,753.52,1548.83Z" transform="translate(-209.98 -93.79)"/><path class="cls-21" d="M707.59,1501.61c10.5-13.18,23.66-11.44,30.56-9.24a44.06,44.06,0,0,1,6-.45c20.5-.48,14.84,23.2,14.84,23.2-.74-14.94-13.68-16.53-13.68-16.53l-.45-.13c1.14,4.16.74,10.83-9.3,17.14-16.19,10.16-14.95,30.5-10.65,36.22C724.89,1551.82,692.65,1520.36,707.59,1501.61Z" transform="translate(-209.98 -93.79)"/><path class="cls-22" d="M767.09,1738.63c2.55-10.81,5.44-16.44,8.82-17.22a3.39,3.39,0,0,1,2.83.63c2.63,1.87,4.85,7.63,6.8,17.6,1.4,7.16,2.11,13.91,2.11,14l-2.14.22c0-.06-.71-6.72-2.09-13.79-2.37-12.15-4.73-15.4-5.93-16.26a1.25,1.25,0,0,0-1.09-.28c-4.57,1-8.53,19.4-10,30.71l-2.14-.26C764.31,1753.88,765.27,1746.31,767.09,1738.63Z" transform="translate(-209.98 -93.79)"/><path class="cls-22" d="M742,1793.14l4.69-31.14A13.51,13.51,0,0,1,760,1750.5h33.26a5.43,5.43,0,0,1,5.43,5.43v38a5.43,5.43,0,0,1-5.43,5.43H747.33A5.43,5.43,0,0,1,742,1793.14Z" transform="translate(-209.98 -93.79)"/><path class="cls-21" d="M764.61,1750.5h29.28a5.82,5.82,0,0,1,5.73,4.72l7.26,37.21a5.84,5.84,0,0,1-5.74,7H769.81a5.83,5.83,0,0,1-5.78-5l-5.2-37.21A5.84,5.84,0,0,1,764.61,1750.5Z" transform="translate(-209.98 -93.79)"/><path class="cls-29" d="M764.4,1718s13.57,3.56,14.37,6.37-3.86,10.79-11.54,8.93-13.81-11-13.81-11Z" transform="translate(-209.98 -93.79)"/><path class="cls-10" d="M718.36,1563.35s-20,2.6-29.59,22.48,8.24,90.86,10.82,95.65,32.47,43.06,57.87,46.37c0,0,10.8-3.81,10.43-10.07,0,0-41.63-41.2-44.58-47.09s1.17-70.51.8-79S718.36,1563.35,718.36,1563.35Z" transform="translate(-209.98 -93.79)"/><path class="cls-18" d="M1166.46,1752.37c.4-10.38,14.42-15.5,14.42-15.5,6.83-4.13,6.43-52.55,8.93-81.06a140.06,140.06,0,0,1,2.11-16.21c4-18,5.22-81.78,17.23-91.79s39.92-14.24,39.92-14.24-9,48.1-18.78,98.35c-10.65,54.62-36.58,106.82-38.83,108.86l0,0c-2.31,4.94-8.48,11.8-11.77,14-4.05,2.7-1.89,8.09-6.74,8.63C1166.49,1764.14,1166.24,1757.79,1166.46,1752.37Z" transform="translate(-209.98 -93.79)"/><path class="cls-18" d="M1248.67,1527.74l0,3.94s-1.07,12.34,14.12,14.14,26.71-4.81,26.29-14.33c-1.36-7.37-2.87-12.44-3-18.54a43.85,43.85,0,0,1,.54-7.38l-29.44-.59-8.67,1.42Z" transform="translate(-209.98 -93.79)"/><path class="cls-23" d="M1248.56,1506.4l.11,21.34a25,25,0,0,0,10.61,2.34c13.54,0,22.28-9.92,26.85-17.13a43.85,43.85,0,0,1,.54-7.38l-29.44-.59Z" transform="translate(-209.98 -93.79)"/><path class="cls-18" d="M1246.84,1516.77s37.71,7.61,42.09-15.94,12.2-38.44-11.69-44.3-30.25,2.26-33.63,9.77S1237.15,1514.18,1246.84,1516.77Z" transform="translate(-209.98 -93.79)"/><path class="cls-30" d="M1249.07,1533.57s-5.18,27.72-12,63.06c-2.15,11.21-4.46,23.19-6.82,35.29-9.61,18.82-17.85,31.62-20.39,29.21-5.2-4.9-14.31-5.51-20.09-5.32a140.06,140.06,0,0,1,2.11-16.21c.32-1.43.61-3.14.9-5.08,3.36-22.68,5.27-77.49,16.33-86.71C1221.17,1537.8,1249.07,1533.57,1249.07,1533.57Z" transform="translate(-209.98 -93.79)"/><path class="cls-31" d="M1209.9,1661.13c-5.2-4.9-14.31-5.51-20.09-5.32a140.06,140.06,0,0,1,2.11-16.21c.32-1.43.61-3.14.9-5.08l28.79-69.5S1212.44,1663.54,1209.9,1661.13Z" transform="translate(-209.98 -93.79)"/><path class="cls-22" d="M1274.49,2041.93s1.56-11.27,4.82-17.8,24-2.37,24-2.37,4.15,3.56,5.05,20.17Z" transform="translate(-209.98 -93.79)"/><path class="cls-22" d="M1203.94,2041.93c4.88-3,2-24.59,2-24.59s-22.73-18.19-25.86-4.26-21.6,20.17-32.11,21.88c-7.26,1.18-7.74,4.59-8.43,7Z" transform="translate(-209.98 -93.79)"/><path class="cls-21" d="M1251,1880.94a102.77,102.77,0,0,0-1.67,12.28c-2.12,41.23-34.71,135.49-40.54,137.69-9,3.4-23.22-3.83-30.65-6.2a6.37,6.37,0,0,1-4.47-7.24c16.14-74.19,22.07-181,24.23-244.29,1.09-31.86,6.56-53.87,6.56-53.87s79.48-21.2,80,5.62C1284.82,1748.67,1258.07,1841.78,1251,1880.94Z" transform="translate(-209.98 -93.79)"/><path class="cls-22" d="M1251,1880.94l-53.1-107.76c1.09-31.86,6.56-53.87,6.56-53.87s79.48-21.2,80,5.62C1284.82,1748.67,1258.07,1841.78,1251,1880.94Z" transform="translate(-209.98 -93.79)"/><path class="cls-21" d="M1233.3,1725l42,304.55s18.45,4.45,32.8.89c0,0,12.31-162,11.28-201.14s8.83-104.78-2.25-112S1233.3,1725,1233.3,1725Z" transform="translate(-209.98 -93.79)"/><path class="cls-32" d="M1323.19,1717.32a6.27,6.27,0,0,1-6.18,6.52l-66.22,1-48.63.74c-2.28,0,4.92-18.18,5.07-137,0-26.51,41.08-55,41.83-55h0c0,3.82,6,10.87,15.29,11.47,11,.72,24.49-4.75,24.49-11.09a30,30,0,0,1,3.34,4.31c5.49,8,16.55,27.5,23.61,61.47,5.58,26.81,3.43,62.67,7.45,108.94C1323.54,1712,1323.11,1715,1323.19,1717.32Z" transform="translate(-209.98 -93.79)"/><path class="cls-30" d="M1320.75,1724.21s-8.8,3.94-25.27,7.35a248.63,248.63,0,0,1-49,4.92c-32.18.21-44.37-10.89-44.37-10.89-2.28,0,4.92-18.18,5.07-137,0-26.51,41.08-55,41.83-55h0s-1,35.31,9.63,45.69c0,0,15-11.57,34.41-44.5,5.49,8,15.63,31,22.69,65a184.36,184.36,0,0,1,3,22.54c1.87,23.44,1.45,52,4.44,86.4.29,3.34-.14,6.31-.06,8.65C1323.33,1720.84,1324.28,1724.16,1320.75,1724.21Z" transform="translate(-209.98 -93.79)"/><path class="cls-31" d="M1320.75,1724.21s-8.8,3.94-25.27,7.35c-5.18-7.89-11.7-22.15-12.61-44.62-1.53-38,34.56-86.92,34.56-86.92l1.38,22.25c1.87,23.44,1.45,52,4.44,86.4.29,3.34-.14,6.31-.06,8.65C1323.33,1720.84,1324.28,1724.16,1320.75,1724.21Z" transform="translate(-209.98 -93.79)"/><path class="cls-10" d="M1225.06,1610l47.39-27.36a8.15,8.15,0,0,1,11.14,3l40.57,70.26a8.16,8.16,0,0,1-3,11.14l-47.39,27.36a8.15,8.15,0,0,1-11.14-3l-40.57-70.26A8.16,8.16,0,0,1,1225.06,1610Z" transform="translate(-209.98 -93.79)"/><path class="cls-18" d="M1233.1,1647.78c1.08-3,11.67-6.82,15.34-6.82s13,8.69,13.17,8.89c2.67-.12,28.87-1.38,48.35-4.23a124.75,124.75,0,0,0,13.41-2.58c4.46-1.2-17.71-57.4-28.9-90.45-2.67-7.88-4.71-14.45-5.62-18.64,0,0,2,.32,5,.92,8.71,1.72,26.4,5.76,33.94,11.46,10.19,7.7,35.62,94.57,20,128.15,0,0-12.6,1.23-34.13-1a328.5,328.5,0,0,1-58.74-11.79,8.24,8.24,0,0,1-1.56,0,137.2,137.2,0,0,1-18.79-4.45C1231.59,1656.09,1232,1650.75,1233.1,1647.78Z" transform="translate(-209.98 -93.79)"/><path class="cls-30" d="M1347.84,1674.48s-12.6,1.23-34.13-1c1.18-5.85,2.29-17.28-3.75-27.88a124.75,124.75,0,0,0,13.41-2.58c4.46-1.2-17.71-57.4-28.9-90.45-.89-10.68-1.36-17.83-1.36-17.83l.77.11c8.71,1.72,26.4,5.76,33.94,11.46C1338,1554,1363.44,1640.9,1347.84,1674.48Z" transform="translate(-209.98 -93.79)"/><path class="cls-31" d="M1258.7,1579.26s30-13.2,30.4-14.24-1.48-9-3.56-11.42c0,0,14.39,1.33,15.28-.45s1.19-16.61,1.19-16.61-5.64-5.93-13.06-6.53c0,0-6.49,16.1-8.9,20.92C1273.68,1563.68,1258.7,1579.26,1258.7,1579.26Z" transform="translate(-209.98 -93.79)"/><path class="cls-31" d="M1251.58,1553.15s1.92,15.43,7.12,26.11c0,0-15.65-10.91-17-14.47s3.78-10.45,3.78-10.45-9.34-.22-9.56-3.34,2.89-15.35,2.89-15.35,7.64-5.79,9.87-5.57Z" transform="translate(-209.98 -93.79)"/><path class="cls-22" d="M1236.28,1448.8a79.08,79.08,0,0,0,22.92-6.2c10.07-4.38,22.77.44,26.89,2.61a6.16,6.16,0,0,0-1-2.48,5.56,5.56,0,0,1,2.13,3.15c.19.14.27.24.22.27a7,7,0,0,1,3.45.22s-1-.13-1.28.47a.61.61,0,0,1-.15.17c15.7,7.59,17.15,32.4,12.1,38.14-6.08,6.91-13.37,22.47-13.37,22.47s-2.66-3.68-1.56-9.75-4.14-6.08-10.77-8.85-1.11-10.5-6.91-15.2-27.08-1.93-26.8-5.52C1234.24,1465.42,1236.28,1449.61,1236.28,1448.8Z" transform="translate(-209.98 -93.79)"/><path class="cls-33" d="M1273.22,1633.3a4,4,0,1,1-4,4A4,4,0,0,1,1273.22,1633.3Z" transform="translate(-209.98 -93.79)"/><path class="cls-25" d="M1110.15,2027.54a10.32,10.32,0,1,1-13.55-5.43A10.32,10.32,0,0,1,1110.15,2027.54Z" transform="translate(-209.98 -93.79)"/><path class="cls-11" d="M1111.09,2027.54a10.32,10.32,0,1,1-13.55-5.43A10.31,10.31,0,0,1,1111.09,2027.54Z" transform="translate(-209.98 -93.79)"/><path class="cls-25" d="M1193,2027.54a10.32,10.32,0,1,1-13.55-5.43A10.31,10.31,0,0,1,1193,2027.54Z" transform="translate(-209.98 -93.79)"/><path class="cls-11" d="M1194,2027.54a10.32,10.32,0,1,1-13.56-5.43A10.32,10.32,0,0,1,1194,2027.54Z" transform="translate(-209.98 -93.79)"/><path class="cls-25" d="M1088.8,2026.21l14.68,5.28a13.57,13.57,0,0,0,4.63.78l83.3-.85,9.09-15.08Z" transform="translate(-209.98 -93.79)"/><path class="cls-25" d="M1144.22,1769.33c.22-2,3-22,27-22.63l17.41-1.84c1.13-.22,8.48-1.45,14.13,2.85,3.8,2.9,5.9,7.55,6.22,13.81.41,8.09-9.76,60.42-14.41,83.81l31.15,6.22s13.11,5.34,10.51,28.3c-2.29,20.21-12.32,133.62-12.32,133.62s-2.09,23.6-52.49,16.75l9.35-187.65,9.45,1.89c6.07-30.52,14.66-75.85,14.31-82.71-.25-4.88-1.75-8.41-4.45-10.49-4.34-3.32-10.58-2-10.63-2l-17.85,1.89h-.17c-21.05.53-22.7,17.94-22.76,18.67v.12l-14.85,81.47-4.38-.79Z" transform="translate(-209.98 -93.79)"/><path class="cls-11" d="M1205.67,1873.76l-12.09,127a28.68,28.68,0,0,1-28.39,26l-41.68.26h-1l-26.1.16a28.51,28.51,0,0,1-7.57-1c-.56-.14-1.12-.31-1.66-.49a28.8,28.8,0,0,1-18.57-19.4,28.41,28.41,0,0,1-.74-12.26l18.93-121.52a28.71,28.71,0,0,1,25.63-24.15l7.36-.7,1.76-.16h0l1.48-.14,24.61-2.35,3-.29,23.75-2.27a28.79,28.79,0,0,1,10.7,1c.22.06.44.12.65.2l1.38.47A28.7,28.7,0,0,1,1205.67,1873.76Z" transform="translate(-209.98 -93.79)"/><path class="cls-26" d="M1188.47,2014.58a28.68,28.68,0,0,1-23.28,12.16l-41.68.26h-1l-26.1.16a28.51,28.51,0,0,1-7.57-1c-.56-.14-1.12-.31-1.66-.49-9-3-19.46-13.94-19.61-25.55,0,0,88.19-1.15,106.62,1.7C1183.66,2003.33,1186.5,2010,1188.47,2014.58Z" transform="translate(-209.98 -93.79)"/><path class="cls-25" d="M1079.12,2005.31c.72-5.12,17.65-125.34,20.28-136,2.3-9.39,15.93-18.75,20.35-21.57l1.76-.16h0l1.48-.14c-.19.12-19.52,11.9-22.06,22.25-2.62,10.64-20.07,134.64-20.25,135.89a28.77,28.77,0,0,0,9.45,21l-1.33-.32c-.56-.14-1.12-.31-1.66-.49C1077.8,2016.46,1079.06,2005.78,1079.12,2005.31Z" transform="translate(-209.98 -93.79)"/><path class="cls-25" d="M1133.4,1869.36a39.19,39.19,0,0,1,14.2-24.33l3-.29a37.63,37.63,0,0,0-15.66,24.85c-2.66,17.47-13,144.38-13.14,145.66v.09l0,.09c0,.06-1.5,6.91,2.77,11.56h-2.08c-4.08-5-2.47-11.11-2.21-12C1120.58,2011.11,1130.77,1886.69,1133.4,1869.36Z" transform="translate(-209.98 -93.79)"/><path class="cls-25" d="M1169.46,1868.65c2.48-16.3,13.3-23.78,15.61-25.19.22.06.44.12.65.2l1.38.47a32.34,32.34,0,0,0-7.56,6.24,35.85,35.85,0,0,0-8.52,18.51c-2.66,17.46-10.88,143.95-11,145.22v.1l0,.09c0,.07-.39,7.8,3.89,12.46h-2.63c-3.27-4.25-3.06-11.94-2.79-12.85C1158.75,2009.87,1166.83,1886,1169.46,1868.65Z" transform="translate(-209.98 -93.79)"/><g id="man"><path class="cls-22" d="M400.39,2010.26c2,6.76,11.29,11.28,12.54,19.56,1,6.42,4.21,10.57,7.72,12.11h24.88c.6-1.58,1.35-5.51-5-6.9-8-1.76-11-11.49-10.55-20.51.21-3.79.11-8.1-.07-11.84-.26-5.17-.68-9.22-.68-9.22l-17.05-4-1.79,2.3-1.72,2.21S398.39,2003.49,400.39,2010.26Z" transform="translate(-209.98 -93.79)"/><path class="cls-22" d="M536.33,2041.93h58.55c-.68-2.12-2.75-5.45-8.92-6.44-9-1.46-24.57-6.69-28.05-18.18-.11-.37-.21-.74-.29-1.13-2.76-12.29-22.82,3.76-22.82,3.76s0,.49-.14,1.32C534.21,2025.56,533.11,2039.07,536.33,2041.93Z" transform="translate(-209.98 -93.79)"/><path class="cls-21" d="M583.57,1713.6s-3,38-6.62,83.71c-4.87,62.07-10.72,138.32-11.3,152.76-1,25.08-5,65.2-5,65.2s-9.53,9.53-28.59,5.52c0,0-17-57.28-21.84-117.88-.07-1-.15-2-.22-3-4.52-61.69-11.54-191.59-11.54-191.59Z" transform="translate(-209.98 -93.79)"/><path class="cls-22" d="M583.57,1713.6s-3,38-6.62,83.71l-66.75,105.6c-.07-1-.15-2-.22-3-4.52-61.69-11.54-191.59-11.54-191.59Z" transform="translate(-209.98 -93.79)"/><path class="cls-21" d="M569.66,1718.11s-54.92,137.67-91,202.37-47.39,82.75-47.39,82.75-20.69-8.27-22.57-13.91c0,0,13.81-124.91,38-155.35,13.66-17.21,29.71-68.84,30.47-86.89s4.89-53.79,4.89-53.79Z" transform="translate(-209.98 -93.79)"/><path class="cls-34" d="M625.2,1680.1l3.14,6.26s16,2.23,11.56,18.87c0,0-2.36,6.85-6.76,4.68s-2.24-2-8.55-4.9-10-8.51-8.54-13.65l-1-5.45Z" transform="translate(-209.98 -93.79)"/><path class="cls-35" d="M541.49,1505.6a161.89,161.89,0,0,0,2.52-23l-27.86-22.46c1,30.88-18.75,45.73-18.75,45.73s37.13,18.28,58.59,11.51A51.25,51.25,0,0,0,541.49,1505.6Z" transform="translate(-209.98 -93.79)"/><path class="cls-34" d="M550.57,1482.13s-35.44,5.89-38.77-16.24-10.15-36.28,12.35-41,28.17,3.08,31.07,10.2S559.71,1480,550.57,1482.13Z" transform="translate(-209.98 -93.79)"/><path class="cls-22" d="M512,1467.42s.72-29.65,33-34.41c22.12-3.26,8.72-21.74,6.19-24.67,0,0-16.91,3.23-34.22,7C480.69,1423.34,508.19,1463,512,1467.42Z" transform="translate(-209.98 -93.79)"/><path class="cls-36" d="M621.48,1688.8a60.31,60.31,0,0,0,8.25-11.19s-40.27-50-43.54-55.23S558.45,1534,558.45,1534l-61.85-12.53s51.63,106.52,60.18,119.5c14.13,21.46,56.42,53.4,56.42,53.4A25.45,25.45,0,0,0,621.48,1688.8Z" transform="translate(-209.98 -93.79)"/><path class="cls-37" d="M585.94,1716.76a3.43,3.43,0,0,1-2.25.86c-8.06-.11-31.56,4.37-51.45,2.33-16.76-1.61-31.6-6.58-47.53-13.72-2.12-1-7-3.55-6.88-5.91.07-2.59.33-6.35.65-11.08,1.13-16.44,3.1-44.73,1.18-77.37-.35-6.07-.53-12.1-.55-18-.16-44.23,8.53-83.74,26.15-96.91,1.5-1.08,10.83,4,19.32,8.24a35.15,35.15,0,0,0,23.1,2.8l7.42,6.55c9,8.38,18.91,19.77,23.21,37.07,3.66,14.73,5.8,41.27,7,68.78.53,12.47,1,25.05,1.07,37v.42c.11,1.18.11,2.48.11,3.66C586.91,1692.05,586.48,1716.33,585.94,1716.76Z" transform="translate(-209.98 -93.79)"/><path class="cls-36" d="M478.48,1689.24c1.13-16.44,3.1-44.73,1.18-77.37-.35-6.07-.53-12.1-.55-18,7.34-17.81,13.34-30.72,13.34-30.72H511S524.53,1655.78,478.48,1689.24Z" transform="translate(-209.98 -93.79)"/><path class="cls-25" d="M335,1774.3l14.37-46.23a26.5,26.5,0,0,1,33.09-17.39l106.67,33.15a26.5,26.5,0,0,1,17.39,33.08l-14.37,46.23a26.51,26.51,0,0,1-33.08,17.4l-106.67-33.16A26.51,26.51,0,0,1,335,1774.3Z" transform="translate(-209.98 -93.79)"/><path class="cls-11" d="M320.77,1770.44l14.53-46.77a26.6,26.6,0,0,1,33.2-17.46l36.67,11.39,3.09-10a8.78,8.78,0,0,1,11-5.76l2.09.64,19.08,5.93,10.68,3.33a8.77,8.77,0,0,1,5.77,11l-3.1,10,21.24,6.61a23.16,23.16,0,0,1,2.38.86h0l.11,0a26.62,26.62,0,0,1,14.93,32.27l-14.54,46.77a26.63,26.63,0,0,1-27.54,18.56h0a26.65,26.65,0,0,1-5.64-1.1l0,0-106.43-33.08A26.58,26.58,0,0,1,320.77,1770.44Zm127.74-39.37,3.1-10a3.27,3.27,0,0,0-2.15-4.09l-10.39-3.23-17.74-5.51-3.73-1.16a3.26,3.26,0,0,0-4.09,2.15l-3.1,10Z" transform="translate(-209.98 -93.79)"/><path class="cls-34" d="M442.48,1695l-3.51,6.06s6.88,14.57-9.45,20c0,0-7,1.77-7.62-3.1s.43-3-.58-9.83,1.66-13,6.73-14.63l4-3.83Z" transform="translate(-209.98 -93.79)"/><path class="cls-37" d="M433.17,1696.66a60.52,60.52,0,0,0,13.89.77s19.78-61.11,22.32-66.69,58.77-71.66,58.77-71.66l-23.42-58.61s-60.81,101.57-67,115.84c-10.2,23.58-13.74,76.45-13.74,76.45A25.35,25.35,0,0,0,433.17,1696.66Z" transform="translate(-209.98 -93.79)"/></g><path class="cls-25" d="M934.75,2035.4c.27,2.9.85,5.42,2,6.53h55.39c-.32-1.67-1.82-5.91-8.79-6.89-8.74-1.23-24.15-6.09-27-17.57s-21.35,4-21.35,4A86.76,86.76,0,0,0,934.75,2035.4Z" transform="translate(-209.98 -93.79)"/><path class="cls-25" d="M885.85,2041.93h57.47a13.2,13.2,0,0,0-8.57-6.53,15.84,15.84,0,0,0-1.82-.36c-8.74-1.23-24.14-6.09-27-17.57s-21.35,4-21.35,4S882.93,2037.49,885.85,2041.93Z" transform="translate(-209.98 -93.79)"/><path class="cls-21" d="M910.81,1731.62s0,2.08.13,5.81c.51,24,2.57,117,4.52,168.84.08,1.89.15,3.72.22,5.49,0,.94.07,1.88.11,2.81a562.81,562.81,0,0,0,8,69.22c4.38,25,8.83,42.07,8.83,42.07,16.69,3.38,27.51-3,27.51-3s4.5-38.84,6.22-62.35c.56-7.62,3.31-33.65,6.76-65.31,2.67-24.48,5.76-52.34,8.6-77.67.15-1.35.29-2.7.45-4,4.58-41,8.37-74.32,8.37-74.32L961,1736.4Z" transform="translate(-209.98 -93.79)"/><path class="cls-22" d="M923.79,1983.79l49.32-88.56c2.67-24.48,5.76-52.34,8.6-77.67.15-1.35.29-2.7.45-4,4.58-41,8.37-74.32,8.37-74.32L961,1736.4l-50.07,1Z" transform="translate(-209.98 -93.79)"/><path class="cls-21" d="M985.07,1739.43s-27.59,136.4-50.07,202.23-22.76,84.12-22.76,84.12-20.63,4.47-29.72-.73c0,0-5.2-124.79,8.41-157.93,9-21.92,15.88-68.58,13.54-85.38s-4.52-50.51-4.52-50.51Z" transform="translate(-209.98 -93.79)"/><path class="cls-18" d="M951.57,1556.33l-30.68-8.66a122.49,122.49,0,0,0,7-26c1-7.38,1-14.92-1.61-20.55-.15-.35-.32-.69-.5-1-1.17-2.18-.46-3.18,1.1-3.43,2.79-.44,8.27,1.51,10.58,3.44,3.53,2.94,20.49,11.55,21.37,12l0,0s0,.13.06.36v0c.1.6.29,1.85.47,3.6C960.28,1524.26,961,1543.28,951.57,1556.33Z" transform="translate(-209.98 -93.79)"/><path class="cls-11" d="M907.29,1746.73c6.52,4.62,16.79,6.28,28.12,6.11A153.89,153.89,0,0,0,975,1746.4a93,93,0,0,0,15.65-6c17.47-9.12,15-21.24,14.57-66.64-.42-46.34-28.94-106.23-34.07-116.26C962,1539.64,921,1546.22,921,1546.22c-9,4.31-12.2,18.69-13.07,37.47-1,20.85.92,47.15.92,71.14,0,19.83-3.75,37.36-6.47,51.89C898.81,1725.6,897,1739.43,907.29,1746.73Z" transform="translate(-209.98 -93.79)"/><path class="cls-26" d="M902.34,1706.72c7.89,16.63,23.43,35.34,33.07,46.12A153.89,153.89,0,0,0,975,1746.4c4.92-11.78,7.08-31.45,2.53-63.92-3.47-24.75-28.74-124.31-28.74-124.31-20.4-2.67-33.09,8.45-40.85,25.52-1,20.85.92,47.15.92,71.14C908.81,1674.66,905.06,1692.19,902.34,1706.72Z" transform="translate(-209.98 -93.79)"/><path class="cls-38" d="M910.55,1785.85h18.53v-5.76a17.34,17.34,0,0,1,17.33-17.33h15.33a17.34,17.34,0,0,1,17.33,17.33v5.76H997.6a10.13,10.13,0,0,1,10.1,10.11v47.17a10.13,10.13,0,0,1-10.1,10.11H910.55a10.14,10.14,0,0,1-10.11-10.11V1796A10.14,10.14,0,0,1,910.55,1785.85Zm61.65-5.76a10.47,10.47,0,0,0-10.46-10.46H946.41A10.47,10.47,0,0,0,936,1780.09v5.76H972.2Z" transform="translate(-209.98 -93.79)"/><path class="cls-29" d="M959.38,1751.16s10.67,20.58,5.34,28.58-24.4-2.28-25.92-6.86,0-26.68,0-26.68Z" transform="translate(-209.98 -93.79)"/><path class="cls-11" d="M913.73,1590.18s4,56.64,3.92,80.07,18.6,85.74,18.6,85.74,12.34,1,17.18.37a19.76,19.76,0,0,0,8.9-3.28s-4.1-73.63,3.72-101.85,8.22-84.9,8.22-84.9S969.93,1554.1,944,1558C913.13,1562.54,913.73,1590.18,913.73,1590.18Z" transform="translate(-209.98 -93.79)"/><path class="cls-11" d="M926.57,1520.17s-7,22.1-5.61,26c0,0,37.92,5.11,53.31,20.11,0,0-5-21.54-11.16-26.93S926.57,1520.17,926.57,1520.17Z" transform="translate(-209.98 -93.79)"/><path class="cls-27" d="M959.89,1516.07h-.47c-3.44,0-24.88,0-30.9,5.14a4.64,4.64,0,0,1-.61.43c1-7.38,1-14.92-1.61-20.55.22-1.72.43-3.26.6-4.46,2.79-.44,8.27,1.51,10.58,3.44,3.53,2.94,20.49,11.55,21.37,12l.1.38v0Z" transform="translate(-209.98 -93.79)"/><path class="cls-18" d="M973.23,1514.71s-35.46,6.79-39.35-15.36-11.08-36.18,11.4-41.45,28.36,2.41,31.46,9.48S982.35,1512.37,973.23,1514.71Z" transform="translate(-209.98 -93.79)"/><path class="cls-22" d="M927.5,1509s1.84-1.41-5.34-12.29-10.58-7.89-10.67-19.49-4.4-18.55,9.06-26.1,11.31-14.54,19.38-16.21,19.81,5,26.74,3.58,28.63,26.84,14.73,33.52c0,0-6.46.33-11-2.47s-21.17-5.62-23.12-.57S934.8,1505.07,927.5,1509Z" transform="translate(-209.98 -93.79)"/><path class="cls-22" d="M1467.2,1746.74s-25.19-11.47-44.25-1.44-7.41,92.82,19.84,100.85h0S1501.3,1917.26,1467.2,1746.74Z" transform="translate(-209.98 -93.79)"/><path class="cls-39" d="M1511.8,1756.33c1.24-9.69-1.18-27.25-1.18-27.25s8.56-.44,13.35,10.84c9.93,23.37,5.62,73.83,5,81,0,0,3.41,14.34-1.66,39.15a44.09,44.09,0,0,0,2.36,5,3.92,3.92,0,0,1,.25.32h0a3,3,0,0,1,0,3.18l-3.28,5.2a2.93,2.93,0,0,1-1.24,1.08h0a2.38,2.38,0,0,1-.51.18l-4.06,1-.4-13.84h0C1519.14,1848.6,1510.66,1765.22,1511.8,1756.33Zm10.49,106.83.09-.11-.17.1S1522.28,1863.18,1522.29,1863.16Z" transform="translate(-209.98 -93.79)"/><path class="cls-24" d="M1439.26,2030.24l3.24,11.69h27.35S1478,2027,1439.26,2030.24Z" transform="translate(-209.98 -93.79)"/><path class="cls-24" d="M1497.91,2030.24l3.24,11.69h27.35S1536.64,2027,1497.91,2030.24Z" transform="translate(-209.98 -93.79)"/><path class="cls-21" d="M1448.55,1659.13c3.41-5.29,8.2-5.51,12.81-10,4.33-4.21,12.41-7,18.84-7,20.59,0,38.41,12.6,34.34,34-1.29,6.78-.2,12.13-5.7,20.07-6.87,9.9-15.22,17.85-28.64,17.85-7.11,0-13.35-1.64-18.84-6.83-3-2.83-7.28-3.17-9.91-6.25-5.31-6.21-4.92-14.4-6.87-22.86C1442.79,1670.36,1445,1664.64,1448.55,1659.13Z" transform="translate(-209.98 -93.79)"/><path class="cls-39" d="M1494.48,1703.41s-4.51,17.45,4.62,24.87l-25.65,13.11-3.38-17s4.84-13.26,3.51-31.72Z" transform="translate(-209.98 -93.79)"/><path class="cls-40" d="M1495.14,1712.2s-26.25,3.2-26.81-15.3,10.38-30.48,17.68-30.34c14.57.27,17,6.16,18.66,12.29S1507.23,1710.89,1495.14,1712.2Z" transform="translate(-209.98 -93.79)"/><path class="cls-22" d="M1520.19,1852l-51.88,4.29s-6.1,91,28,175.37c0,0,4.3,1.62,15.54,1.62a41.3,41.3,0,0,0,13.53-2.18Z" transform="translate(-209.98 -93.79)"/><path class="cls-21" d="M1439.67,1857.22s-16,62-3,175.2a58.64,58.64,0,0,0,17,2.11,75.07,75.07,0,0,0,18.22-2.1l16.9-146.94c.64-4.35,9.14-27.2,9.14-27.2Z" transform="translate(-209.98 -93.79)"/><path class="cls-19" d="M1438.5,1765.25l-3.4-27.87c.52-.72.93-1.33,1.44-2,6-7.3,28.9-10.49,33.53-11,.2.2,10.79,8.94,18.4,7.91,6.48-.82,7.6-4.26,7.39-8,13.57,2.26,21.24,6.58,21.24,6.58,13.83,5.18,16.6,51.12,16.6,51.12-1.83-.54-11,1.06-15.27,1.86l1.72,68.1c-33,14.4-80.52,5.14-80.52,5.14l.1-.41,3.19-54.5-3-24.89Z" transform="translate(-209.98 -93.79)"/><path class="cls-19" d="M1488.12,1701.54s.57,2.3,6.32,1.88c0,0,4.83-.36,4.65-2.9C1499.09,1700.52,1494.39,1698.77,1488.12,1701.54Z" transform="translate(-209.98 -93.79)"/><path class="cls-37" d="M1459.66,1855c-2.25,2.81-13.34,4.29-20,2.25l3.27-54.91-4.45-37,4.3-2s18.89,15.16,16.69,27.24S1462.54,1851.36,1459.66,1855Z" transform="translate(-209.98 -93.79)"/><path class="cls-19" d="M1419.06,1768s15.92,5,21.59,9.79a9.72,9.72,0,0,0,1.37,1l20.44-39.18,3.8-7.51,3.5-7.1.31-.61a4.88,4.88,0,0,0-.83.1,115,115,0,0,0-12.34,2.06,78.33,78.33,0,0,0-10.69,3.08h-.1c-4.12,1.54-7.61,3.5-9.57,5.76-.51.62-.92,1.23-1.44,2C1428.42,1747,1419.06,1768,1419.06,1768Z" transform="translate(-209.98 -93.79)"/><path class="cls-21" d="M1440.55,1841.76s71.06-76,25.71-109.62a47.32,47.32,0,0,0-9.36-5.55,78.33,78.33,0,0,0-10.69,3.08,34.32,34.32,0,0,1,16.25,10c11,12.23,16.14,38.25-21.29,92.44Z" transform="translate(-209.98 -93.79)"/><path class="cls-21" d="M1492.51,1666.73s-22.43,0-17.28,15.39c3.25,9.71-7.55,11.22-7.55,11.22s-4.69-11.49-5.2-15.56c-.4-3.12.72-10.27,3.25-12.13C1471.13,1661.68,1492.51,1666.73,1492.51,1666.73Z" transform="translate(-209.98 -93.79)"/><path class="cls-39" d="M1419.45,1768.17c6.93,2.14,18,6.52,21.2,9.65-3.53,8.11-5.85,13.76-5.85,13.76,2.65-1.18,16.36-2.29,23.46-2.8h0c.81-.06,7.31-2.19,7.31-2.19s0-11.1,12.74-12c0,0,5.29,0,4.21,3.64s-1.2,2-2.62,7.17-5.1,9-9,9.26c-18.85,15.85-44.79,16-52.62,15.61a3.11,3.11,0,0,1-2.9-2.4C1412.4,1795,1414.16,1781.66,1419.45,1768.17Z" transform="translate(-209.98 -93.79)"/><rect class="cls-41" y="1945.99" width="2578.04" height="4.29" rx="2.07" ry="2.07"/><text class="cls-42" transform="translate(190.15 276.21)">BUS P<tspan class="cls-43" x="860.96" y="0">L</tspan><tspan class="cls-44" x="1031.56" y="0">A</tspan><tspan class="cls-45" x="1220.65" y="0">TFORM</tspan></text></svg>